<?xml version="1.0" encoding="iso-8859-1"?>
<!-- Generator: Adobe Illustrator 16.0.0, SVG Export Plug-In . SVG Version: 6.00 Build 0)  -->
<!DOCTYPE svg PUBLIC "-//W3C//DTD SVG 1.1//EN" "http://www.w3.org/Graphics/SVG/1.1/DTD/svg11.dtd">
<svg version="1.1" id="Capa_1" xmlns="http://www.w3.org/2000/svg" xmlns:xlink="http://www.w3.org/1999/xlink" x="0px" y="0px"
	 width="106.058px" height="106.059px" viewBox="0 0 106.058 106.059" style="enable-background:new 0 0 106.058 106.059;"
	 xml:space="preserve">
<g>
	<path style="fill:#010002;" d="M78.242,35.722l-6.38,17.049H70.65V35.722H78.242z M26.994,35.734h-8.477v17.046l16.961-0.01
		l-0.005-8.516v-8.521H26.994z M26.994,35.315h8.479V18.266H18.512l0.005,17.049H26.994z M70.661,70.226l16.948-0.011V53.177H76.875
		l-4.479,11.97c-0.29,0.761-0.952,1.289-1.734,1.465V70.226z M52.843,18.256l-16.946,0.01v17.049l16.946-0.01V18.256z
		 M26.999,70.236h7.943l0.541-1.082V53.189L18.522,53.2l0.011,17.046L26.999,70.236z M70.231,35.305l-0.005-8.549l-0.006-8.5H53.262
		v17.049h8.487H70.231z M34.73,70.655l-16.203,0.011V84l14.31-9.555L34.73,70.655z M49.079,52.771h3.774l-0.005-7.462l-0.031-0.031
		L49.079,52.771z M87.598,35.294V24.539l-4.018,10.766L87.598,35.294z M106.053,21.21v63.639c0,11.667-9.543,21.21-21.21,21.21
		H21.215c-11.667,0-21.209-9.543-21.209-21.21V21.21C0.005,9.543,9.548,0,21.215,0h63.628C96.51,0,106.053,9.543,106.053,21.21z
		 M92.797,92.771l-0.026-79.505l-79.51,0.021l0.01,79.505L92.797,92.771z M40.356,70.236h12.492V53.189h-3.982L40.356,70.236z
		 M87.598,35.711h-4.184l-6.38,17.049h10.574L87.598,35.711z M70.661,70.646v17.046h16.948V70.63L70.661,70.646z M64.504,52.771
		h5.731V35.722H61.75h-8.487v2.736c0.425,0.15,0.803,0.394,1.088,0.774L64.504,52.771z M35.903,53.189V68.32l7.555-15.131H35.903z
		 M52.853,70.655H40.149l-3.265,6.53c-0.191,0.372-0.466,0.704-0.823,0.941l-0.153,0.099v0.979l0.011,8.502l16.953-0.01
		l-0.005-8.514L52.853,70.655z M53.283,79.174l0.006,8.518h16.953V70.646l-16.969,0.01L53.283,79.174z M70.231,57.112v-3.917h-5.416
		l4.593,6.116L70.231,57.112z M58.446,52.771l-5.179-6.9l0.006,6.9H58.446z M35.483,78.5l-13.787,9.202h13.802l-0.01-8.497V78.5
		H35.483z M78.397,35.305l6.385-17.06l-14.137,0.011l0.005,8.5l0.006,8.549H78.397z M43.66,52.771l6.581-13.168
		c0.376-0.751,1.113-1.256,1.944-1.331c0.241-0.016,0.44,0.075,0.658,0.114v-2.664l-16.946,0.013v8.513l0.005,8.523H43.66z
		 M58.761,53.189h-5.488v17.047l16.969-0.011v-3.562c-0.798,0.026-1.569-0.279-2.062-0.911L58.761,53.189z M70.65,53.189v2.794
		l1.052-2.794H70.65z"/>
</g>
<g>
</g>
<g>
</g>
<g>
</g>
<g>
</g>
<g>
</g>
<g>
</g>
<g>
</g>
<g>
</g>
<g>
</g>
<g>
</g>
<g>
</g>
<g>
</g>
<g>
</g>
<g>
</g>
<g>
</g>
</svg>
